<svg id="blade_shades" xmlns="http://www.w3.org/2000/svg" xmlns:xlink="http://www.w3.org/1999/xlink" viewBox="0 0 1200 800"><style>.st0{fill:#fff}.st5{fill:#b71e43}</style><path class="st0" d="M319.8 87h581.9s34.1 2.4 32.8 32.7l-16.4 169.2s-2.9 31.1-42.5 30.1-531.5-1-531.5-1-31.1-.2-35.1-28.1C305 262 291 130 291 130s-2-35 28.8-43z"/><path d="M876.3 164.6l-528.9.2-.7-14.8 529.4.5zm1 31.5H347.6l-.1-12.2 529.8-1.9zm-.7 34.8H348.7l.2-14h527.7zm-1 33.5H349.7l.2-14.1h525.7z" fill="#9ac2d8"/><path d="M319.4 299.7l-3-182.3 588.2-2.6-1.7 187.7-583.5-2.8zm20.2-172.2s-13.9.5-13.9 12.9 2.8 91.1 4.1 130c.8 22.9 15.4 22 15.4 22l535.2 2.5s16.5.8 14.9-18.8l-.7-135.4c.7-14-9.9-13.3-9.9-13.3s-95.6-.6-121.5-1.4c-68.1-1.6-423.6 1.5-423.6 1.5z" fill="#6c9cb7"/><path fill="none" d="M262.1 483.4h749.2v250.2H262.1z"/><path d="M914.7 282.6l4-149.6s5.7-28-28-28l-557.9 1c-31.5 0-28 28-28 28s7.2 132.8 9.1 160.6c1.7 25.4 32 24.3 32 24.3H879c41.6.7 35.7-36.3 35.7-36.3zm-565.6 29.1c19.7 0 51.6-.3 92.2-.3m-105-13.1c-11.6 0-12.3-22-12.3-22s-5-120.3-6.1-140.4c-.3-5 2-12.2 12.2-14.3l560.6-.6c6 0 10.9 4.9 10.9 10.9v146.4s1.8 22.7-15.6 21.4c-3.5-.2-549.7-1.4-549.7-1.4z"/><path d="M307 276.3l-7.8-132.8s-8.4-45.3 27.9-45.9c45-.7 573.4 0 573.4 0 27.9.2 25.4 34.7 25.4 34.7-.6 21.5-4.9 133.7-4.9 133.7l13.1-136.1s5.5-42.1-29.4-42.7c-31.2-.5-538.5.1-582.3 0-37.5-.1-31.8 49.7-31.8 49.7L307 276.3z"/><path d="M873.8 134.3H351.2s-14.2-.4-14.2 12.2l2 123.3c0 6.7 5.5 12.2 12.2 12.2h522.6c6.7 0 12.2-5.5 12.2-12.2V146.5c0-6.8-5.5-12.2-12.2-12.2zm-522.6 5.4c9.4-.9 522.6-.9 522.6-.9s6.1-.7 7 10.1l-.3 19.4h-24.3l6.6-12-15.7 12 3.4-19.5-11.6 19.2v-26.5l-6.3 26.9H343.1l-.6-21.9s-.8-5.9 8.7-6.8zm169.7 100.2l-8.1-25.2 1.7 25.2-169.4-1-1-32.2c1.5-.2 178.1-.5 181.8-.4l-5 33.6zm5.8-33.6l9.5.2-6.2 32.9-3.3-33.1zm11.5.3l93.5 1.2-5.9 32h-14.5l-3.6-23.4-.9 23.4-70.6.1 2-33.3zm95.9 1.1l245.8-2.3-.5 33.5-249.7.8 4.4-32zm108.2-5.7l.2-24.3-5 24.3-5.5-16.8s-.2 16.8-1.6 16.8h-.5l-9.1-9.3 4.5 9c-7.4-.4-14.7-.5-22-.5h-8.9l-6.5-26.8V201l-10.5-19.1 3.1 19.6c-.8 0-1.6 0-2.3.1l-11.8-12.1 6.2 12.3c-12.7.4-25.3.8-38 .7l1.1-8.7-2.2 8.7c-5.7 0-95.2-.4-95.2-.4l.7-11.9-2 11.8H344l-.2-27.7h536.5l-.4 26.7-137.6 1zm131.5 73H351.2c-2.9 0-5.2-2.4-5.2-5.2l-.7-24.5 534-.1-.3 24.7c0 2.8-2.4 5.1-5.2 5.1z"/><linearGradient id="SVGID_1_" gradientUnits="userSpaceOnUse" x1="607.45" y1="942.2" x2="607.45" y2="512" gradientTransform="translate(0 -198)"><stop offset="0" stop-color="#fff"/><stop offset=".052" stop-color="#d6d6d6"/><stop offset=".125" stop-color="#a4a4a4"/><stop offset=".201" stop-color="#787878"/><stop offset=".279" stop-color="#535353"/><stop offset=".36" stop-color="#353535"/><stop offset=".446" stop-color="#1e1e1e"/><stop offset=".536" stop-color="#0d0d0d"/><stop offset=".637" stop-color="#030303"/><stop offset=".765"/></linearGradient><path d="M701 744.2L533 739l-21-315.3s-9-88.2-24.6-109.7c1.7 0 237.5 5.2 240.1 5.2l-26.5 425z" fill="url(#SVGID_1_)"/><ellipse class="st0" cx="617.3" cy="129.8" rx="2.9" ry="1.5"/><path class="st0" d="M424 311c0 .8 1.3 1.5 2.9 1.5s2.9-.7 2.9-1.5"/><ellipse class="st0" cx="423" cy="312.2" rx="2.9" ry="1.5"/><ellipse class="st0" cx="414.9" cy="312.5" rx="2.9" ry="1.5"/><path class="st0" d="M333.6 311.1c-.4 1 9.6 6.3 61.1 3.7l473.1-.3c25.2.5 29.9-4.8 29.9-4.8l-216.4.8c-.1-.7.4-3.6-3.6-3.5-2 0-3.6 1.6-3.6 3.6m24.2 448.6H536.7s-20.5-356.9-20.5-360.4c.9 1.7 19 97.5 30.7 109.1 14 13.1 3.1 174.8 49.9 172.8 46.9-2 75.9-149.2 77.4-150.4 5.8-5 31.5-108.5 33.4-114 .9-2.7-.9-7.8-1.3-14.4-.2-3.5 3.4 11 3.4 13-.1 114.8-11.4 344.3-11.4 344.3z"/><circle class="st0" cx="542.1" cy="110.7" r="5.9"/><circle class="st0" cx="319.8" cy="222.7" r="5.9"/><image width="3321" height="1657" xlink:href="../../../Desktop/temp/stickybits/B0339C72566A5A71.png" transform="translate(160.381 393.202) scale(.2757)" overflow="visible" opacity=".75"/><path class="st5" d="M216.8 533.4c-40.6 0-66.6 16.8-78 16.8-25.2 0 45.5-71.3 89.8-71.3 19.8 0 32.7 15.6 38.4 15.6 12.4 0 .2-54.9-33.2-54.9-48 0-123 65.6-123 105.2 0 10.6 13.6 24 26.7 24 6.7 0 37.6-21.8 77.5-21.8 17.3 0 20.3 15.1 20.3 33.4 0 41.1-61.6 85.6-91.3 85.6-7.4 0-22-3-22-14.4 0-12.6-15.8-15.3-15.8.5 0 29.4 26.7 44.3 42.8 44.3 48.3 0 128.4-49 128.4-117.8 0-19.2-7.4-45.2-60.6-45.2z"/><path class="st5" d="M357.3 530.5c13.4 10.5 41.1 19.1 41.1 2.2 0-2.2-.7-4.6-1.9-7.1 20.4-3.1 38.1-6.6 48.9-10 6.2-2 7.7-5.7.5-5.9-13.4 0-36.3.8-63.3 1.4-3-1.7-6.3-2.7-9.4-2.7-8.1 0-15.4-.2-19.5 3.1-3 0-5.9.1-8.9.1l1.5-8.4c2-13.9 3.5-24 3.5-29 0-18.6-30.2-33.9-30.2-10.1 0 5.4-3 20.3-6.7 39.8l-1.5 7.4c-31.9-1-63.1-3.2-87.6-8.2-3.5-.7-6.2 2.5-1 5.9 12.4 8.4 29.9 20.3 54.4 23.3 8.4 1 18.8 1.5 30.2 1.2-4.9 29.2-9.7 61.6-9.7 86.9 0 53.9 22.3 82.9 37.1 82.9s-6.7-5.4-6.7-71.3c0-24.3 6.9-65.3 13.1-100.2 5.4-.3 10.8-.8 16.1-1.3z"/><path class="st5" d="M819.4 583.7c-8.7-2.2-19.8-5.2-30.7-7.7 50-40.8 90.6-123.5 14.6-123.5-69.3 0-143 97-119.8 97 6.2 0 42.6-83.6 120.3-83.6 62.1 0 8.2 78.7-40.6 92.8 8.9-26.2 21-44.3 21-50.5 0-10.1-16.3-15.3-28.2-15.3-9.2 0-27 54.2-27 97.8 0 22.3 13.6 59.6 24.3 59.6 11.1 0 1-9.9 1-40.1 0-3.2 0-6.2.5-9.4 1.5 2.2 3.2 4.5 5.7 5.2 7.7 2.2 73.3.2 90.6 16.3-42.1 14-116.8 40.8-148 62.4 4.3-13.8 6.7-29 6.7-44.6 0-35.4-1.7-54.7-1.7-63.6 0-9.2-13.1-16.6-26-16.6-10.9 0-4 7.7-4 13.6v2c0 14.6-20 76.2-25.2 92.3-2-5.9-3.7-15.1-3.7-32.4 0-35.4 9.7-64.8 9.7-73.7 0-9.2-16.1-16.6-29-16.6-10.9 0-4 7.7-4 13.6 0 8.4-6.4 51.5-6.4 78.4 0 35.9 24.7 46 33.9 45 .5 0 1-.2 1.2-.2 1-.2 1.7-.7 2-1.5 8.7-8.2 17.8-47.5 22-67.3.2 14.6.5 30.4.5 42.6 0 28.7-10.2 49.7-21.6 62.5-.9-1.1-2.6-1.9-5.1-1.9-38.4 0-57.9-66.6-74.2-96.8 18.3-6.7 32.7-19.1 32.7-42.6 0-25-18.8-24.5-35.4-24.5-12.1 0-30.9 26.5-39.8 50.5 1.7-31.2 11.1-86.4 11.1-98.2 0-13.1-36.9-22.5-36.9-9.4 0 5.7-8.4 91.1-8.4 115.1v2.7c-2.9 6.5-11.8 50.5-38.4 50.5-22.8 0-15.6-99 1-99 4.5 0 7.2 21.8 14.8 21.8 7.7 0-3.2-28.2-8.4-33.4-5.4-5.4-25.7-3.7-33.2 4-7.7 7.4-21.3 31.4-21.3 58.4 0 5.6.4 11.2 1.3 16.6-6.4 13.7-14.8 29-20.6 32.1-4.2-9.4-9.4-26-9.4-52.5 0-10.6 1.5-25.5 1.5-34.4 0-12.4-31.2-22-31.2-11.1 0 6.2-2.7 16.6-2.7 45.3 0 22.8 4 69 36.1 69h.5c9.6 0 20.3-18.6 28.3-36.9 6.1 21.8 19.2 38.6 36.8 38.6 24.5 0 38.8-30.3 46.3-51 5.3 35.1 23.9 50.8 40.1 50.8 9.4 0-.2-4.5-5.2-35.4.2-7.2 1-13.9 2.2-20 30.7 6.9 36.1 103.2 97.8 103.2 2.6 0 4.9-.2 7-.5-5.2 3.2-10 4.6-13.4 4.2-13.6-1.5-23.5-13.4-24.3-5.9-.7 7.4 10.1 19.3 29.2 21.5 21 2.3 41.1-12.8 55-36.8 6.3 11.8 23.9 16.8 44 16.8 47.5 0 123-44.5 132.1-76.7 11.6-39.2-25.2-61.7-48-68.6zm-277.2 30.9c11.6-46.5 40.1-65.1 40.1-45.5 0 5.2-6.9 40.3-40.1 45.5zm313.1 20.3c-7.2 24.5-85.9 60.6-135.4 60.6-43.8 0 77-47.3 135.1-68.5.8 2.4 1.3 5.2.3 7.9zm232.1-125.2c-19.3 0-58.7 1.7-101.2 2l1.5-8.4c2-13.9 3.5-24 3.5-29 0-18.6-30.2-33.9-30.2-10.1 0 5.4-3 20.3-6.7 39.8l-1.5 7.4c-31.9-1-63.1-3.2-87.6-8.2-3.5-.7-6.2 2.5-1 5.9 3 2.1 6.4 4.3 10.1 6.6-.4 1.3-.7 2.9-.7 4.7 0 12.4 48.1 34.3 48.3 12.2 7.8.8 17 1.1 27 .9-4.9 29.2-9.7 61.6-9.7 86.9 0 4.7.2 9.3.5 13.6-6.2 13.1-14 27-19.6 29.9-4.2-9.4-9.4-26-9.4-52.5 0-10.6 1.5-25.5 1.5-34.4 0-12.4-31.2-22-31.2-11.1 0 6.2-2.7 16.6-2.7 45.3 0 22.8 4 69 36.1 69h.5c8.9 0 18.6-15.8 26.3-32.6 5.9 36.3 22.9 55.6 35 55.6 14.8 0-6.7-5.4-6.7-71.3 0-24.3 6.9-65.3 13.1-100.2 40.3-3.2 84.1-10.1 104.2-16.3 6.3-1.8 7.8-5.5.6-5.7z"/><path class="st5" d="M1050.8 604c4.2 0 28-23.5 28-42.1 0-18.8-25-16.6-43.1-16.6-17.8 0-39.6 38.9-39.6 60.4 0 40.1 53.2 31.9 53.2 31.9 0 8.9-34.2 45.5-46 45.5-6.4 0 3 12.9 17.6 12.9s54.4-35.4 54.4-57.4c0-21.8-37.9-21.3-44.3-21.3-14.6 0 2.7-48.3 21.8-48.3 3.9.1-6.5 35-2 35z"/></svg>