<?xml version="1.0" encoding="utf-8"?>
<!-- Generator: Adobe Illustrator 19.2.1, SVG Export Plug-In . SVG Version: 6.00 Build 0)  -->
<svg version="1.1" id="blade_shades" xmlns="http://www.w3.org/2000/svg" xmlns:xlink="http://www.w3.org/1999/xlink" x="0px"
	 y="0px" viewBox="0 0 1200 800" style="enable-background:new 0 0 1200 800;" xml:space="preserve">
<style type="text/css">
	.st0{fill:#FFFFFF;}
	.st1{fill:#9AC2D8;}
	.st2{fill:#6C9CB7;}
	.st3{fill:none;}
	.st4{fill:url(#SVGID_1_);}
	.st5{fill:#B71E43;}
</style>
<path class="st0" d="M319.8,87h581.9c0,0,34.1,2.4,32.8,32.7l-16.4,169.2c0,0-2.9,31.1-42.5,30.1s-531.5-1-531.5-1
	s-31.1-0.2-35.1-28.1C305,262,291,130,291,130S289,95,319.8,87z"/>
<polygon class="st1" points="876.3,164.6 347.4,164.8 346.7,150 876.1,150.5 "/>
<polygon class="st1" points="877.3,196.1 347.6,196.1 347.5,183.9 877.3,182 "/>
<polygon class="st1" points="876.6,230.9 348.7,230.9 348.9,216.9 876.6,216.9 "/>
<polygon class="st1" points="875.6,264.4 349.7,264.4 349.9,250.3 875.6,250.3 "/>
<g>
	<g>
		<g>
			<path class="st2" d="M319.4,299.7l-3-182.3l588.2-2.6l-1.7,187.7L319.4,299.7z M339.6,127.5c0,0-13.9,0.5-13.9,12.9
				s2.8,91.1,4.1,130c0.8,22.9,15.4,22,15.4,22l535.2,2.5c0,0,16.5,0.8,14.9-18.8l-0.7-135.4c0.7-14-9.9-13.3-9.9-13.3
				s-95.6-0.6-121.5-1.4C695.1,124.4,339.6,127.5,339.6,127.5z"/>
		</g>
	</g>
</g>
<rect x="262.1" y="483.4" class="st3" width="749.2" height="250.2"/>
<path d="M914.7,282.6l4-149.6c0,0,5.7-28-28-28l-557.9,1c-31.5,0-28,28-28,28s7.2,132.8,9.1,160.6c1.7,25.4,32,24.3,32,24.3H879
	C920.6,319.6,914.7,282.6,914.7,282.6z M349.1,311.7c19.7,0,51.6-0.3,92.2-0.3 M336.3,298.3c-11.6,0-12.3-22-12.3-22
	s-5-120.3-6.1-140.4c-0.3-5,2-12.2,12.2-14.3l560.6-0.6c6,0,10.9,4.9,10.9,10.9v146.4c0,0,1.8,22.7-15.6,21.4
	C882.5,299.5,336.3,298.3,336.3,298.3z"/>
<path d="M307,276.3l-7.8-132.8c0,0-8.4-45.3,27.9-45.9c45-0.7,573.4,0,573.4,0c27.9,0.2,25.4,34.7,25.4,34.7
	C925.3,153.8,921,266,921,266l13.1-136.1c0,0,5.5-42.1-29.4-42.7c-31.2-0.5-538.5,0.1-582.3,0c-37.5-0.1-31.8,49.7-31.8,49.7
	L307,276.3z"/>
<path d="M873.8,134.3H351.2c0,0-14.2-0.4-14.2,12.2l2,123.3c0,6.7,5.5,12.2,12.2,12.2h522.6c6.7,0,12.2-5.5,12.2-12.2V146.5
	C886,139.7,880.5,134.3,873.8,134.3z M351.2,139.7c9.4-0.9,522.6-0.9,522.6-0.9s6.1-0.7,7,10.1l-0.3,19.4c-3.7,0-12.1,0-24.3,0
	l6.6-12l-15.7,12l3.4-19.5L838.9,168v-26.5l-6.3,26.9H343.1l-0.6-21.9C342.5,146.5,341.7,140.6,351.2,139.7z M520.9,239.9l-8.1-25.2
	l1.7,25.2l-169.4-1l-1-32.2c1.5-0.2,178.1-0.5,181.8-0.4L520.9,239.9z M526.7,206.3l9.5,0.2l-6.2,32.9L526.7,206.3z M538.2,206.6
	l93.5,1.2l-5.9,32h-14.5l-3.6-23.4l-0.9,23.4l-70.6,0.1L538.2,206.6z M634.1,207.7l245.8-2.3l-0.5,33.5l-249.7,0.8L634.1,207.7z
	 M742.3,202l0.2-24.3l-5,24.3l-5.5-16.8c0,0-0.2,16.8-1.6,16.8c-0.2,0-0.5,0-0.5,0l-9.1-9.3l4.5,9c-7.4-0.4-14.7-0.5-22-0.5
	c-3,0-5.9,0-8.9,0l-6.5-26.8V201l-10.5-19.1l3.1,19.6c-0.8,0-1.6,0-2.3,0.1l-11.8-12.1l6.2,12.3c-12.7,0.4-25.3,0.8-38,0.7l1.1-8.7
	l-2.2,8.7c-5.7,0-95.2-0.4-95.2-0.4l0.7-11.9l-2,11.8H344l-0.2-27.7h536.5l-0.4,26.7L742.3,202z M873.8,275H351.2
	c-2.9,0-5.2-2.4-5.2-5.2l-0.7-24.5l534-0.1l-0.3,24.7C879,272.7,876.6,275,873.8,275z"/>
<linearGradient id="SVGID_1_" gradientUnits="userSpaceOnUse" x1="607.45" y1="942.2" x2="607.45" y2="512" gradientTransform="matrix(1 0 0 1 0 -198)">
	<stop  offset="0" style="stop-color:#FFFFFF"/>
	<stop  offset="5.225497e-02" style="stop-color:#D6D6D6"/>
	<stop  offset="0.1246" style="stop-color:#A4A4A4"/>
	<stop  offset="0.2006" style="stop-color:#787878"/>
	<stop  offset="0.279" style="stop-color:#535353"/>
	<stop  offset="0.3604" style="stop-color:#353535"/>
	<stop  offset="0.4456" style="stop-color:#1E1E1E"/>
	<stop  offset="0.5365" style="stop-color:#0D0D0D"/>
	<stop  offset="0.6369" style="stop-color:#030303"/>
	<stop  offset="0.7654" style="stop-color:#000000"/>
</linearGradient>
<path class="st4" d="M701,744.2L533,739l-21-315.3c0,0-9-88.2-24.6-109.7c1.7,0,237.5,5.2,240.1,5.2L701,744.2z"/>
<ellipse class="st0" cx="617.3" cy="129.8" rx="2.9" ry="1.5"/>
<path class="st0" d="M424,311c0,0.8,1.3,1.5,2.9,1.5s2.9-0.7,2.9-1.5"/>
<ellipse class="st0" cx="423" cy="312.2" rx="2.9" ry="1.5"/>
<ellipse class="st0" cx="414.9" cy="312.5" rx="2.9" ry="1.5"/>
<path class="st0" d="M333.6,311.1c-0.4,1,9.6,6.3,61.1,3.7l473.1-0.3c25.2,0.5,29.9-4.8,29.9-4.8l-216.4,0.8
	c-0.1-0.7,0.4-3.6-3.6-3.5c-2,0-3.6,1.6-3.6,3.6"/>
<path class="st0" d="M698.3,759.2H536.7c0,0-20.5-356.9-20.5-360.4c0.9,1.7,19,97.5,30.7,109.1c14,13.1,3.1,174.8,49.9,172.8
	c46.9-2,75.9-149.2,77.4-150.4c5.8-5,31.5-108.5,33.4-114c0.9-2.7-0.9-7.8-1.3-14.4c-0.2-3.5,3.4,11,3.4,13
	C709.6,529.7,698.3,759.2,698.3,759.2z"/>
<circle class="st0" cx="542.1" cy="110.7" r="5.9"/>
<circle class="st0" cx="319.8" cy="222.7" r="5.9"/>
<image style="overflow:visible;opacity:0.75;enable-background:new    ;" width="3321" height="1657" xlink:href="../../../Desktop/temp/stickybits/B0339C72566A5A71.png"  transform="matrix(0.2757 0 0 0.2757 160.3815 393.2023)">
</image>
<g>
	<path class="st5" d="M216.8,533.4c-40.6,0-66.6,16.8-78,16.8c-25.2,0,45.5-71.3,89.8-71.3c19.8,0,32.7,15.6,38.4,15.6
		c12.4,0,0.2-54.9-33.2-54.9c-48,0-123,65.6-123,105.2c0,10.6,13.6,24,26.7,24c6.7,0,37.6-21.8,77.5-21.8
		c17.3,0,20.3,15.1,20.3,33.4c0,41.1-61.6,85.6-91.3,85.6c-7.4,0-22-3-22-14.4c0-12.6-15.8-15.3-15.8,0.5
		c0,29.4,26.7,44.3,42.8,44.3c48.3,0,128.4-49,128.4-117.8C277.4,559.4,270,533.4,216.8,533.4z"/>
	<path class="st5" d="M357.3,530.5c13.4,10.5,41.1,19.1,41.1,2.2c0-2.2-0.7-4.6-1.9-7.1c20.4-3.1,38.1-6.6,48.9-10
		c6.2-2,7.7-5.7,0.5-5.9c-13.4,0-36.3,0.8-63.3,1.4c-3-1.7-6.3-2.7-9.4-2.7c-8.1,0-15.4-0.2-19.5,3.1c-3,0-5.9,0.1-8.9,0.1l1.5-8.4
		c2-13.9,3.5-24,3.5-29c0-18.6-30.2-33.9-30.2-10.1c0,5.4-3,20.3-6.7,39.8l-1.5,7.4c-31.9-1-63.1-3.2-87.6-8.2
		c-3.5-0.7-6.2,2.5-1,5.9c12.4,8.4,29.9,20.3,54.4,23.3c8.4,1,18.8,1.5,30.2,1.2c-4.9,29.2-9.7,61.6-9.7,86.9
		c0,53.9,22.3,82.9,37.1,82.9c14.8,0-6.7-5.4-6.7-71.3c0-24.3,6.9-65.3,13.1-100.2C346.6,531.5,352,531,357.3,530.5z"/>
	<path class="st5" d="M819.4,583.7c-8.7-2.2-19.8-5.2-30.7-7.7c50-40.8,90.6-123.5,14.6-123.5c-69.3,0-143,97-119.8,97
		c6.2,0,42.6-83.6,120.3-83.6c62.1,0,8.2,78.7-40.6,92.8c8.9-26.2,21-44.3,21-50.5c0-10.1-16.3-15.3-28.2-15.3
		c-9.2,0-27,54.2-27,97.8c0,22.3,13.6,59.6,24.3,59.6c11.1,0,1-9.9,1-40.1c0-3.2,0-6.2,0.5-9.4c1.5,2.2,3.2,4.5,5.7,5.2
		c7.7,2.2,73.3,0.2,90.6,16.3c-42.1,14-116.8,40.8-148,62.4c4.3-13.8,6.7-29,6.7-44.6c0-35.4-1.7-54.7-1.7-63.6
		c0-9.2-13.1-16.6-26-16.6c-10.9,0-4,7.7-4,13.6c0,0.5,0,1.2,0,2c0,14.6-20,76.2-25.2,92.3c-2-5.9-3.7-15.1-3.7-32.4
		c0-35.4,9.7-64.8,9.7-73.7c0-9.2-16.1-16.6-29-16.6c-10.9,0-4,7.7-4,13.6c0,8.4-6.4,51.5-6.4,78.4c0,35.9,24.7,46,33.9,45
		c0.5,0,1-0.2,1.2-0.2c1-0.2,1.7-0.7,2-1.5c8.7-8.2,17.8-47.5,22-67.3c0.2,14.6,0.5,30.4,0.5,42.6c0,28.7-10.2,49.7-21.6,62.5
		c-0.9-1.1-2.6-1.9-5.1-1.9c-38.4,0-57.9-66.6-74.2-96.8c18.3-6.7,32.7-19.1,32.7-42.6c0-25-18.8-24.5-35.4-24.5
		c-12.1,0-30.9,26.5-39.8,50.5c1.7-31.2,11.1-86.4,11.1-98.2c0-13.1-36.9-22.5-36.9-9.4c0,5.7-8.4,91.1-8.4,115.1c0,0.9,0,1.8,0,2.7
		c-2.9,6.5-11.8,50.5-38.4,50.5c-22.8,0-15.6-99,1-99c4.5,0,7.2,21.8,14.8,21.8c7.7,0-3.2-28.2-8.4-33.4c-5.4-5.4-25.7-3.7-33.2,4
		c-7.7,7.4-21.3,31.4-21.3,58.4c0,5.6,0.4,11.2,1.3,16.6c-6.4,13.7-14.8,29-20.6,32.1c-4.2-9.4-9.4-26-9.4-52.5
		c0-10.6,1.5-25.5,1.5-34.4c0-12.4-31.2-22-31.2-11.1c0,6.2-2.7,16.6-2.7,45.3c0,22.8,4,69,36.1,69c0.2,0,0.2,0,0.5,0
		c9.6,0,20.3-18.6,28.3-36.9c6.1,21.8,19.2,38.6,36.8,38.6c24.5,0,38.8-30.3,46.3-51c5.3,35.1,23.9,50.8,40.1,50.8
		c9.4,0-0.2-4.5-5.2-35.4c0.2-7.2,1-13.9,2.2-20c30.7,6.9,36.1,103.2,97.8,103.2c2.6,0,4.9-0.2,7-0.5c-5.2,3.2-10,4.6-13.4,4.2
		c-13.6-1.5-23.5-13.4-24.3-5.9c-0.7,7.4,10.1,19.3,29.2,21.5c21,2.3,41.1-12.8,55-36.8c6.3,11.8,23.9,16.8,44,16.8
		c47.5,0,123-44.5,132.1-76.7C879,613.1,842.2,590.6,819.4,583.7z M542.2,614.6c11.6-46.5,40.1-65.1,40.1-45.5
		C582.3,574.3,575.4,609.4,542.2,614.6z M855.3,634.9c-7.2,24.5-85.9,60.6-135.4,60.6c-43.8,0,77-47.3,135.1-68.5
		C855.8,629.4,856.3,632.2,855.3,634.9z"/>
	<path class="st5" d="M1087.4,509.7c-19.3,0-58.7,1.7-101.2,2l1.5-8.4c2-13.9,3.5-24,3.5-29c0-18.6-30.2-33.9-30.2-10.1
		c0,5.4-3,20.3-6.7,39.8l-1.5,7.4c-31.9-1-63.1-3.2-87.6-8.2c-3.5-0.7-6.2,2.5-1,5.9c3,2.1,6.4,4.3,10.1,6.6
		c-0.4,1.3-0.7,2.9-0.7,4.7c0,12.4,48.1,34.3,48.3,12.2c7.8,0.8,17,1.1,27,0.9c-4.9,29.2-9.7,61.6-9.7,86.9c0,4.7,0.2,9.3,0.5,13.6
		c-6.2,13.1-14,27-19.6,29.9c-4.2-9.4-9.4-26-9.4-52.5c0-10.6,1.5-25.5,1.5-34.4c0-12.4-31.2-22-31.2-11.1c0,6.2-2.7,16.6-2.7,45.3
		c0,22.8,4,69,36.1,69c0.2,0,0.2,0,0.5,0c8.9,0,18.6-15.8,26.3-32.6c5.9,36.3,22.9,55.6,35,55.6c14.8,0-6.7-5.4-6.7-71.3
		c0-24.3,6.9-65.3,13.1-100.2c40.3-3.2,84.1-10.1,104.2-16.3C1093.1,513.6,1094.6,509.9,1087.4,509.7z"/>
	<path class="st5" d="M1050.8,604c4.2,0,28-23.5,28-42.1c0-18.8-25-16.6-43.1-16.6c-17.8,0-39.6,38.9-39.6,60.4
		c0,40.1,53.2,31.9,53.2,31.9c0,8.9-34.2,45.5-46,45.5c-6.4,0,3,12.9,17.6,12.9s54.4-35.4,54.4-57.4c0-21.8-37.9-21.3-44.3-21.3
		c-14.6,0,2.7-48.3,21.8-48.3C1056.7,569.1,1046.3,604,1050.8,604z"/>
</g>
</svg>
